<svg width="24" height="24" viewBox="0 0 24 24" fill="none" xmlns="http://www.w3.org/2000/svg">
<path fill-rule="evenodd" clip-rule="evenodd" d="M3 11.9995C3 10.8176 3.23279 9.64735 3.68508 8.55547C4.13738 7.4636 4.80031 6.47149 5.63604 5.63581C6.47177 4.80012 7.46392 4.13722 8.55585 3.68495C9.64778 3.23268 10.8181 2.9999 12 2.9999C13.1819 2.9999 14.3522 3.23268 15.4442 3.68495C16.5361 4.13722 17.5282 4.80012 18.364 5.63581C19.1997 6.47149 19.8626 7.4636 20.3149 8.55547C20.7672 9.64735 21 10.8176 21 11.9995C21 14.3863 20.0518 16.6754 18.364 18.3631C16.6761 20.0508 14.3869 20.999 12 20.999C9.61305 20.999 7.32387 20.0508 5.63604 18.3631C3.94821 16.6754 3 14.3863 3 11.9995ZM12 1C5.925 1 1 5.92476 1 11.9995C1 18.0742 5.925 22.9989 12 22.9989C18.075 22.9989 23 18.0742 23 11.9995C23 5.92476 18.075 1 12 1ZM14.707 7.70667C14.8892 7.51807 14.99 7.26548 14.9877 7.0033C14.9854 6.74112 14.8802 6.49032 14.6948 6.30492C14.5094 6.11952 14.2586 6.01436 13.9964 6.01208C13.7342 6.0098 13.4816 6.11059 13.293 6.29274L8.293 11.2925C8.10553 11.48 8.00021 11.7343 8.00021 11.9995C8.00021 12.2646 8.10553 12.5189 8.293 12.7064L13.293 17.7062C13.4816 17.8883 13.7342 17.9891 13.9964 17.9868C14.2586 17.9846 14.5094 17.8794 14.6948 17.694C14.8802 17.5086 14.9854 17.2578 14.9877 16.9956C14.99 16.7334 14.8892 16.4808 14.707 16.2922L10.414 11.9995L14.707 7.70667Z" fill="#515151"/>
</svg>
